# Blender v2.83.0 OBJ File: 'truck.blend'
# www.blender.org
mtllib truck.mtl
o Cube
v 1.305821 1.200000 -1.000000
v 1.000000 0.000000 -1.000000
v 0.935241 1.000000 -0.800000
v 0.908763 0.000000 -0.800000
v -1.305821 1.200000 -1.000000
v -1.000000 0.000000 -1.000000
v -0.935241 1.000000 -0.800000
v -0.908763 0.000000 -0.800000
v 1.000000 0.000000 -2.000000
v -1.000000 0.000000 -2.000000
v 1.305821 2.700000 -1.615639
v -1.305821 2.700000 -1.615639
v 1.000000 0.107895 -3.200000
v -1.000000 0.107895 -3.200000
v 1.305821 2.700000 -3.384361
v -1.305821 2.700000 -3.384361
v 1.013277 0.107895 -3.400000
v -1.013277 0.107895 -3.400000
v 1.249749 0.584209 -3.400000
v -1.249749 0.584209 -3.400000
v 1.000000 0.107895 -3.500000
v -1.000000 0.107895 -3.500000
v 1.013277 0.107895 -3.700000
v -1.013277 0.107895 -3.700000
v 0.957060 0.584209 -3.700000
v -0.957060 0.584209 -3.700000
v 0.389210 0.107895 -3.800000
v -0.389210 0.107895 -3.800000
v 0.394377 0.107895 -4.000000
v -0.394377 0.107895 -4.000000
v 0.372497 0.584209 -4.000000
v -0.372497 0.584209 -4.000000
v 0.389210 0.107895 -4.200000
v -0.389210 0.107895 -4.200000
v 0.394377 0.107895 -4.400000
v -0.394377 0.107895 -4.400000
v 0.372497 0.584209 -4.400000
v -0.372497 0.584209 -4.400000
vt 0.625000 0.500000
vt 0.875000 0.500000
vt 0.875000 0.750000
vt 0.625000 0.750000
vt 0.375000 0.750000
vt 0.625000 1.000000
vt 0.375000 1.000000
vt 0.375000 0.000000
vt 0.625000 0.000000
vt 0.625000 0.250000
vt 0.375000 0.250000
vt 0.125000 0.500000
vt 0.375000 0.500000
vt 0.125000 0.750000
vt 0.375000 0.500000
vt 0.625000 0.500000
vt 0.375000 0.500000
vt 0.625000 0.500000
vt 0.625000 0.250000
vt 0.375000 0.250000
vt 0.125000 0.500000
vt 0.875000 0.500000
vt 0.375000 0.250000
vt 0.625000 0.250000
vt 0.625000 0.250000
vt 0.375000 0.250000
vt 0.125000 0.500000
vt 0.875000 0.500000
vt 0.125000 0.500000
vt 0.375000 0.500000
vt 0.625000 0.500000
vt 0.875000 0.500000
vt 0.625000 0.250000
vt 0.375000 0.250000
vt 0.625000 0.250000
vt 0.375000 0.250000
vt 0.125000 0.500000
vt 0.375000 0.500000
vt 0.625000 0.500000
vt 0.875000 0.500000
vt 0.375000 0.500000
vt 0.125000 0.500000
vt 0.625000 0.250000
vt 0.375000 0.250000
vt 0.125000 0.500000
vt 0.375000 0.500000
vt 0.625000 0.500000
vt 0.875000 0.500000
vt 0.375000 0.500000
vt 0.125000 0.500000
vt 0.375000 0.500000
vt 0.875000 0.500000
vt 0.625000 0.500000
vt 0.125000 0.500000
vt 0.375000 0.500000
vt 0.125000 0.500000
vn 0.0000 0.7071 0.7071
vn 0.0000 0.0000 1.0000
vn -0.6762 -0.1021 0.7296
vn 0.0000 -1.0000 0.0000
vn 0.6762 -0.1021 0.7296
vn 0.9813 -0.1410 -0.1309
vn 0.9934 -0.1147 -0.0042
vn -0.9813 -0.1410 -0.1309
vn 0.0000 0.3797 0.9251
vn -0.7166 -0.0851 0.6923
vn -0.9934 -0.1147 -0.0042
vn 0.0000 -0.9960 -0.0896
vn 0.0000 1.0000 0.0000
vn 0.0000 0.0074 -1.0000
vn 0.7166 -0.0851 0.6923
vn -0.8860 -0.1677 -0.4322
vn -0.4459 0.0366 -0.8943
vn 0.8860 -0.1677 -0.4322
vn -0.9989 0.0459 0.0000
vn 0.4459 0.0366 -0.8943
vn 0.0000 0.0000 -1.0000
vn 0.9989 0.0459 0.0000
usemtl Material
s off
f 1/1/1 5/2/1 7/3/1 3/4/1
f 4/5/2 3/4/2 7/6/2 8/7/2
f 8/8/3 7/9/3 5/10/3 6/11/3
f 6/12/4 2/13/4 4/5/4 8/14/4
f 2/13/5 1/1/5 3/4/5 4/5/5
f 1/1/6 2/13/6 9/15/6 11/16/6
f 11/16/7 9/15/7 13/17/7 15/18/7
f 6/11/8 5/10/8 12/19/8 10/20/8
f 2/13/4 6/12/4 10/21/4 9/15/4
f 5/2/9 1/1/9 11/16/9 12/22/9
f 14/23/10 16/24/10 20/25/10 18/26/10
f 10/20/11 12/19/11 16/24/11 14/23/11
f 9/15/12 10/21/12 14/27/12 13/17/12
f 12/22/13 11/16/13 15/18/13 16/28/13
f 13/17/4 14/27/4 18/29/4 17/30/4
f 16/28/14 15/18/14 19/31/14 20/32/14
f 15/18/15 13/17/15 17/30/15 19/31/15
f 18/26/16 20/25/16 26/33/16 24/34/16
f 24/34/17 26/33/17 32/35/17 30/36/17
f 17/30/4 18/29/4 24/37/4 23/38/4
f 20/32/13 19/31/13 25/39/13 26/40/13
f 14/27/13 13/17/13 21/41/13 22/42/13
f 19/31/18 17/30/18 23/38/18 25/39/18
f 30/36/19 32/35/19 38/43/19 36/44/19
f 23/38/4 24/37/4 30/45/4 29/46/4
f 26/40/13 25/39/13 31/47/13 32/48/13
f 25/39/20 23/38/20 29/46/20 31/47/20
f 22/42/13 21/41/13 27/49/13 28/50/13
f 35/51/21 36/44/21 38/52/21 37/53/21
f 29/46/4 30/45/4 36/54/4 35/51/4
f 32/48/13 31/47/13 37/53/13 38/52/13
f 31/47/22 29/46/22 35/51/22 37/53/22
f 28/50/13 27/49/13 33/55/13 34/56/13
